<?xml version="1.0" encoding="utf-8"?>
<svg version="1.1" xmlns:xlink="http://www.w3.org/1999/xlink" width="12px" height="12px" viewBox="333 193  12 12" xmlns="http://www.w3.org/2000/svg">
  <path d="M 339 193  C 342.36 193  345 195.64  345 199  C 345 202.36  342.36 205  339 205  C 335.64 205  333 202.36  333 199  C 333 195.64  335.64 193  339 193  Z " fill-rule="nonzero" fill="#ffffff" stroke="none" />
  <path d="M 339 193.5  C 342.08 193.5  344.5 195.92  344.5 199  C 344.5 202.08  342.08 204.5  339 204.5  C 335.92 204.5  333.5 202.08  333.5 199  C 333.5 195.92  335.92 193.5  339 193.5  Z " stroke-width="1" stroke="#797979" fill="none" />
  <path d="M 339 202  C 337.32 202  336 200.68  336 199  C 336 197.32  337.32 196  339 196  C 340.68 196  342 197.32  342 199  C 342 200.68  340.68 202  339 202  " fill-rule="nonzero" fill="#797979" stroke="none" />
</svg>