<?xml version="1.0" encoding="utf-8"?>
<svg version="1.1" xmlns:xlink="http://www.w3.org/1999/xlink" width="12px" height="12px" viewBox="333 274  12 12" xmlns="http://www.w3.org/2000/svg">
  <path d="M 339 274  C 342.36 274  345 276.64  345 280  C 345 283.36  342.36 286  339 286  C 335.64 286  333 283.36  333 280  C 333 276.64  335.64 274  339 274  Z " fill-rule="nonzero" fill="#f0f0f0" stroke="none" />
  <path d="M 339 274.5  C 342.08 274.5  344.5 276.92  344.5 280  C 344.5 283.08  342.08 285.5  339 285.5  C 335.92 285.5  333.5 283.08  333.5 280  C 333.5 276.92  335.92 274.5  339 274.5  Z " stroke-width="1" stroke="#797979" fill="none" />
  <path d="M 339 283  C 337.32 283  336 281.68  336 280  C 336 278.32  337.32 277  339 277  C 340.68 277  342 278.32  342 280  C 342 281.68  340.68 283  339 283  " fill-rule="nonzero" fill="#797979" stroke="none" />
</svg>