<?xml version="1.0" encoding="utf-8"?>
<svg version="1.1" xmlns:xlink="http://www.w3.org/1999/xlink" width="18px" height="18px" preserveAspectRatio="xMinYMid meet" viewBox="427 164  18 16" xmlns="http://www.w3.org/2000/svg">
  <path d="M 434 172.5  L 445 172.5  A 5 5 0 0 0 450.5 167.5 L 450.5 165  A 5 5 0 0 1 455.5 160.5 L 478 160.5  A 5 5 0 0 1 483.5 165.5 L 483.5 178  " stroke-width="1" stroke="#ff3399" fill="none" />
  <path d="M 436 169.5  A 3 3 0 0 0 433 172.5 A 3 3 0 0 0 436 175.5 A 3 3 0 0 0 439 172.5 A 3 3 0 0 0 436 169.5 Z " fill-rule="nonzero" fill="#ff3399" stroke="none" />
</svg>