<?xml version="1.0" encoding="utf-8"?>
<svg version="1.1" xmlns:xlink="http://www.w3.org/1999/xlink" width="340px" height="95px" xmlns="http://www.w3.org/2000/svg">
  <g transform="matrix(1 0 0 1 -413 -60 )">
    <path d="M 414 64  A 3 3 0 0 1 417 61 L 749 61  A 3 3 0 0 1 752 64 L 752 151  A 3 3 0 0 1 749 154 L 417 154  A 3 3 0 0 1 414 151 L 414 64  Z " fill-rule="nonzero" fill="#ff3399" stroke="none" fill-opacity="0.0980392156862745" />
    <path d="M 413.5 64  A 3.5 3.5 0 0 1 417 60.5 L 749 60.5  A 3.5 3.5 0 0 1 752.5 64 L 752.5 151  A 3.5 3.5 0 0 1 749 154.5 L 417 154.5  A 3.5 3.5 0 0 1 413.5 151 L 413.5 64  Z " stroke-width="1" stroke-dasharray="9,4" stroke="#ff3399" fill="none" stroke-dashoffset="0.5" />
  </g>
</svg>