<svg t="1668064198252" class="icon" viewBox="0 0 1024 1024" version="1.1" xmlns="http://www.w3.org/2000/svg" p-id="10761" width="200" height="200"><path d="M410.794667 251.744344a31.848602 31.848602 0 0 1 43.288774 12.370581 31.512774 31.512774 0 0 1-11.319054 42.429935l-1.112086 0.644129-222.015312 123.67828-42.006021 387.237161 162.441634-163.344516c-6.854194-14.495656-11.142882-30.703484-11.142882-47.75914 0-59.711312 48.860215-108.32929 108.863312-108.32929 60.008602 0 108.868817 48.194065 108.868817 108.32929 0 59.705806-48.436301 108.323785-108.868817 108.323785-18.817376 0-36.858495-4.663054-52.246021-13.251441l-2.185635-1.24972-153.864258 154.381763 397.312-70.36972 77.146839-204.276989c6.00086-16.207828 24.43286-24.311742 40.717763-18.338409 15.910538 5.830194 24.454882 23.463914 18.855914 39.379957l-83.571612 222.472258c-3.699613 10.217978-12.122839 17.303398-22.627097 19.75329l-1.376344 0.291785-513.89385 91.262624c-20.612129 3.771183-38.746839-13.003699-37.381505-33.384602l0.093591-1.156129 53.143398-493.430366a32.547785 32.547785 0 0 1 15.084731-23.585032l1.205678-0.721204 236.588043-131.35828z m27.427785 310.04628c-25.286194 0-45.859785 20.474495-45.430366 45.21015 0 24.730151 20.573591 45.19914 45.430366 45.19914 24.86228 0 45.430366-20.03957 45.430365-45.19914 0-24.735656-20.144172-45.210151-45.430365-45.21015zM636.70228 88.086022L919.397849 370.676989l-7.25058 19.180731c-10.658409 28.132473-27.284645 53.704946-49.030882 75.445678-86.131613 86.098581-227.691355 83.968-316.377462-4.690581-88.262194-88.653075-90.822194-230.163269-4.690581-316.261849 20.876387-20.865376 45.287226-37.023656 72.103914-47.709592l3.363785-1.310279L636.70228 88.086022z m-14.495656 74.592344c-13.212903 7.245075-24.730151 15.767398-35.388559 26.425806-60.972043 60.950022-59.265376 162.821505 4.69058 226.755441 63.955957 63.933935 165.436559 66.064516 226.838022 4.690581a151.210667 151.210667 0 0 0 24.823742-32.443183l1.607569-2.934366-222.571354-222.494279z" fill="#3A3A3A" p-id="10762"></path></svg>