<?xml version="1.0" encoding="utf-8"?>
<svg version="1.1" xmlns:xlink="http://www.w3.org/1999/xlink" width="12px" height="12px" viewBox="333 117  12 12" xmlns="http://www.w3.org/2000/svg">
  <path d="M 339 117  C 342.36 117  345 119.64  345 123  C 345 126.36  342.36 129  339 129  C 335.64 129  333 126.36  333 123  C 333 119.64  335.64 117  339 117  Z " fill-rule="nonzero" fill="#f0f0f0" stroke="none" />
  <path d="M 339 117.5  C 342.08 117.5  344.5 119.92  344.5 123  C 344.5 126.08  342.08 128.5  339 128.5  C 335.92 128.5  333.5 126.08  333.5 123  C 333.5 119.92  335.92 117.5  339 117.5  Z " stroke-width="1" stroke="#797979" fill="none" />
  <path d="M 339 126  C 337.32 126  336 124.68  336 123  C 336 121.32  337.32 120  339 120  C 340.68 120  342 121.32  342 123  C 342 124.68  340.68 126  339 126  " fill-rule="nonzero" fill="#797979" stroke="none" />
</svg>