<?xml version="1.0" encoding="utf-8"?>
<svg version="1.1" xmlns:xlink="http://www.w3.org/1999/xlink" width="12px" height="12px" viewBox="333 518  12 12" xmlns="http://www.w3.org/2000/svg">
  <path d="M 339 518  C 342.36 518  345 520.64  345 524  C 345 527.36  342.36 530  339 530  C 335.64 530  333 527.36  333 524  C 333 520.64  335.64 518  339 518  Z " fill-rule="nonzero" fill="#f0f0f0" stroke="none" />
  <path d="M 339 518.5  C 342.08 518.5  344.5 520.92  344.5 524  C 344.5 527.08  342.08 529.5  339 529.5  C 335.92 529.5  333.5 527.08  333.5 524  C 333.5 520.92  335.92 518.5  339 518.5  Z " stroke-width="1" stroke="#797979" fill="none" />
  <path d="M 339 527  C 337.32 527  336 525.68  336 524  C 336 522.32  337.32 521  339 521  C 340.68 521  342 522.32  342 524  C 342 525.68  340.68 527  339 527  " fill-rule="nonzero" fill="#797979" stroke="none" />
</svg>