<?xml version="1.0" encoding="utf-8"?>
<svg version="1.1" xmlns:xlink="http://www.w3.org/1999/xlink" width="12px" height="12px" viewBox="333 438  12 12" xmlns="http://www.w3.org/2000/svg">
  <path d="M 339 438  C 342.36 438  345 440.64  345 444  C 345 447.36  342.36 450  339 450  C 335.64 450  333 447.36  333 444  C 333 440.64  335.64 438  339 438  Z " fill-rule="nonzero" fill="#f0f0f0" stroke="none" />
  <path d="M 339 438.5  C 342.08 438.5  344.5 440.92  344.5 444  C 344.5 447.08  342.08 449.5  339 449.5  C 335.92 449.5  333.5 447.08  333.5 444  C 333.5 440.92  335.92 438.5  339 438.5  Z " stroke-width="1" stroke="#797979" fill="none" />
  <path d="M 339 447  C 337.32 447  336 445.68  336 444  C 336 442.32  337.32 441  339 441  C 340.68 441  342 442.32  342 444  C 342 445.68  340.68 447  339 447  " fill-rule="nonzero" fill="#797979" stroke="none" />
</svg>