<?xml version="1.0" encoding="utf-8"?>
<svg version="1.1" xmlns:xlink="http://www.w3.org/1999/xlink" width="18px" height="18px" preserveAspectRatio="xMinYMid meet" viewBox="532 128  18 16" xmlns="http://www.w3.org/2000/svg">
  <path d="M 539 136.5  L 557 136.5  A 3 3 0 0 0 560.5 133.5 A 3 3 0 0 1 563.5 130.5 L 583 130.5  A 5 5 0 0 1 588.5 135.5 L 588.5 142  " stroke-width="1" stroke="#ff3399" fill="none" />
  <path d="M 541 133.5  A 3 3 0 0 0 538 136.5 A 3 3 0 0 0 541 139.5 A 3 3 0 0 0 544 136.5 A 3 3 0 0 0 541 133.5 Z " fill-rule="nonzero" fill="#ff3399" stroke="none" />
</svg>