<?xml version="1.0" encoding="utf-8"?>
<svg version="1.1" xmlns:xlink="http://www.w3.org/1999/xlink" width="350px" height="46px" xmlns="http://www.w3.org/2000/svg">
  <g transform="matrix(1 0 0 1 -458 -20 )">
    <path d="M 459 24  A 3 3 0 0 1 462 21 L 804 21  A 3 3 0 0 1 807 24 L 807 62  A 3 3 0 0 1 804 65 L 462 65  A 3 3 0 0 1 459 62 L 459 24  Z " fill-rule="nonzero" fill="#ff3399" stroke="none" fill-opacity="0.0980392156862745" />
    <path d="M 458.5 24  A 3.5 3.5 0 0 1 462 20.5 L 804 20.5  A 3.5 3.5 0 0 1 807.5 24 L 807.5 62  A 3.5 3.5 0 0 1 804 65.5 L 462 65.5  A 3.5 3.5 0 0 1 458.5 62 L 458.5 24  Z " stroke-width="1" stroke-dasharray="9,4" stroke="#ff3399" fill="none" stroke-dashoffset="0.5" />
  </g>
</svg>