<?xml version="1.0" encoding="utf-8"?>
<svg version="1.1" xmlns:xlink="http://www.w3.org/1999/xlink" width="420px" height="120px" xmlns="http://www.w3.org/2000/svg">
  <g transform="matrix(1 0 0 1 -423 -104 )">
    <path d="M 424 108  A 3 3 0 0 1 427 105 L 839 105  A 3 3 0 0 1 842 108 L 842 220  A 3 3 0 0 1 839 223 L 427 223  A 3 3 0 0 1 424 220 L 424 108  Z " fill-rule="nonzero" fill="#ff3399" stroke="none" fill-opacity="0.0980392156862745" />
    <path d="M 423.5 108  A 3.5 3.5 0 0 1 427 104.5 L 839 104.5  A 3.5 3.5 0 0 1 842.5 108 L 842.5 220  A 3.5 3.5 0 0 1 839 223.5 L 427 223.5  A 3.5 3.5 0 0 1 423.5 220 L 423.5 108  Z " stroke-width="1" stroke-dasharray="9,4" stroke="#ff3399" fill="none" stroke-dashoffset="0.5" />
  </g>
</svg>