<?xml version="1.0" encoding="utf-8"?>
<svg version="1.1" xmlns:xlink="http://www.w3.org/1999/xlink" width="10px" height="24px" preserveAspectRatio="xMidYMin meet" viewBox="583 205  8 24" xmlns="http://www.w3.org/2000/svg">
  <path d="M 538 223.5  L 545 223.5  A 5 5 0 0 0 550.5 218.5 L 550.5 215  A 5 5 0 0 1 555.5 210.5 L 582 210.5  A 5 5 0 0 1 587.5 215.5 L 587.5 229  " stroke-width="1" stroke="#ff3399" fill="none" />
  <path d="M 540 220.5  A 3 3 0 0 0 537 223.5 A 3 3 0 0 0 540 226.5 A 3 3 0 0 0 543 223.5 A 3 3 0 0 0 540 220.5 Z " fill-rule="nonzero" fill="#ff3399" stroke="none" />
</svg>