<svg t="1669252903109" class="icon" viewBox="0 0 1024 1024" version="1.1" xmlns="http://www.w3.org/2000/svg" p-id="9971" width="200" height="200"><path d="M5.298087 0H1024v1022.901797H5.298087z" fill="#FFFFFF" p-id="9972"></path><path d="M0 0.912696h1018.88742V1024H0z" fill="#FFFFFF" opacity=".5" p-id="9973"></path><path d="M569.143652 433.997913h349.977971a7.353507 7.353507 0 0 0 7.346087-7.353507v-23.069681a7.353507 7.353507 0 0 0-7.346087-7.353508H569.136232a7.346087 7.346087 0 0 0-7.338667 7.353508v23.069681a7.346087 7.346087 0 0 0 7.346087 7.353507z m357.331478 463.86458V459.182377H561.804986v438.680116h-37.732174V116.543072a28.805565 28.805565 0 0 0-28.790725-28.835246h-363.668406a28.805565 28.805565 0 0 0-28.790724 28.835246v781.319421h-48.231885v44.521739h920.115942v-44.521739z m-660.183188-180.550493a12.614493 12.614493 0 0 1-12.614493 12.614493H171.957797a12.614493 12.614493 0 0 1-12.577391-12.614493V635.481043a12.614493 12.614493 0 0 1 12.577391-12.614492h81.719652a12.614493 12.614493 0 0 1 12.614493 12.614492z m0-214.075362a12.614493 12.614493 0 0 1-12.614493 12.614492H171.957797a12.614493 12.614493 0 0 1-12.577391-12.614492V421.405681a12.614493 12.614493 0 0 1 12.577391-12.614493h81.719652a12.614493 12.614493 0 0 1 12.614493 12.614493z m0-214.075363a12.614493 12.614493 0 0 1-12.614493 12.614493H171.957797a12.614493 12.614493 0 0 1-12.577391-12.614493V207.330319a12.614493 12.614493 0 0 1 12.577391-12.614493h81.719652a12.614493 12.614493 0 0 1 12.614493 12.614493z m201.201159 428.150725a12.614493 12.614493 0 0 1-12.614492 12.614493H373.158957a12.614493 12.614493 0 0 1-12.614493-12.614493V635.481043a12.614493 12.614493 0 0 1 12.614493-12.614492h81.719652a12.614493 12.614493 0 0 1 12.614492 12.614492z m0-214.075362a12.614493 12.614493 0 0 1-12.614492 12.614492H373.158957a12.614493 12.614493 0 0 1-12.614493-12.614492V421.405681a12.614493 12.614493 0 0 1 12.614493-12.614493h81.719652a12.614493 12.614493 0 0 1 12.614492 12.614493z m0-214.075363a12.614493 12.614493 0 0 1-12.614492 12.614493H373.158957a12.614493 12.614493 0 0 1-12.614493-12.614493V207.330319a12.614493 12.614493 0 0 1 12.614493-12.614493h81.719652a12.614493 12.614493 0 0 1 12.614492 12.614493z m358.4 608.701218H662.379594v-150.720928a17.200232 17.200232 0 0 1 17.192812-17.215072h129.113043a17.207652 17.207652 0 0 1 17.200232 17.215072z" fill="#A05CDD" p-id="9974"></path></svg>