<svg t="1669252830835" class="icon" viewBox="0 0 1024 1024" version="1.1" xmlns="http://www.w3.org/2000/svg" p-id="8459" width="200" height="200"><path d="M217.19461 155.378673h496.355044v372.266283H217.19461z" fill="#3288FF" p-id="8460"></path><path d="M868.660605 248.445244h-124.088761V155.378673a31.02219 31.02219 0 0 0-31.02219-31.02219H304.677186A93.066571 93.066571 0 0 0 310.26118 93.334292a93.066571 93.066571 0 1 0-124.088761 87.482577V992.97781a31.02219 31.02219 0 0 0 62.044381 0V558.667146h155.110951v93.066571a50.255948 50.255948 0 0 0 0 5.894216 44.05151 44.05151 0 0 0 0 6.204438 25.748418 25.748418 0 0 0 5.894216 8.375991 10.547545 10.547545 0 0 0 1.861332 1.861332 33.193744 33.193744 0 0 0 6.824882 4.653328h2.791997A31.02219 31.02219 0 0 0 434.349941 682.755907h434.310664a31.02219 31.02219 0 0 0 31.02219-31.02219V279.467434a31.02219 31.02219 0 0 0-31.02219-31.02219zM217.19461 62.312102a31.02219 31.02219 0 1 1-31.022191 31.02219 31.02219 31.02219 0 0 1 31.022191-31.02219z m31.02219 124.088761h434.310663v310.221903H248.2168z m319.218338 372.266283L465.372132 603.959544V558.667146zM837.638415 620.711527h-257.173958l145.804295-64.836378 3.412441-2.171553a46.223063 46.223063 0 0 0 6.204438-4.653329 24.197308 24.197308 0 0 0 3.102219-4.653328 23.266643 23.266643 0 0 0 3.102219-5.273773 19.854202 19.854202 0 0 0 0-7.445325A15.511095 15.511095 0 0 0 744.571844 527.644956v-217.155332h93.066571z" fill="#3288FF" p-id="8461"></path></svg>