<?xml version="1.0" encoding="utf-8"?>
<svg version="1.1" xmlns:xlink="http://www.w3.org/1999/xlink" width="38px" height="10px" preserveAspectRatio="xMinYMid meet" viewBox="585 216  38 8" xmlns="http://www.w3.org/2000/svg">
  <path d="M 569 224.5  L 588 224.5  A 2 2 0 0 0 590.5 222.5 A 2 2 0 0 1 592.5 220.5 L 613 220.5  A 5 5 0 0 1 618.5 225.5 L 618.5 230  " stroke-width="1" stroke="#ff3399" fill="none" />
  <path d="M 571 221.5  A 3 3 0 0 0 568 224.5 A 3 3 0 0 0 571 227.5 A 3 3 0 0 0 574 224.5 A 3 3 0 0 0 571 221.5 Z " fill-rule="nonzero" fill="#ff3399" stroke="none" />
</svg>