<?xml version="1.0" encoding="utf-8"?>
<svg version="1.1" xmlns:xlink="http://www.w3.org/1999/xlink" width="12px" height="12px" viewBox="333 191  12 12" xmlns="http://www.w3.org/2000/svg">
  <path d="M 339 191  C 342.36 191  345 193.64  345 197  C 345 200.36  342.36 203  339 203  C 335.64 203  333 200.36  333 197  C 333 193.64  335.64 191  339 191  Z " fill-rule="nonzero" fill="#ffffff" stroke="none" />
  <path d="M 339 191.5  C 342.08 191.5  344.5 193.92  344.5 197  C 344.5 200.08  342.08 202.5  339 202.5  C 335.92 202.5  333.5 200.08  333.5 197  C 333.5 193.92  335.92 191.5  339 191.5  Z " stroke-width="1" stroke="#797979" fill="none" />
  <path d="M 339 200  C 337.32 200  336 198.68  336 197  C 336 195.32  337.32 194  339 194  C 340.68 194  342 195.32  342 197  C 342 198.68  340.68 200  339 200  " fill-rule="nonzero" fill="#797979" stroke="none" />
</svg>