<?xml version="1.0" encoding="utf-8"?>
<svg version="1.1" xmlns:xlink="http://www.w3.org/1999/xlink" width="12px" height="12px" viewBox="333 437  12 12" xmlns="http://www.w3.org/2000/svg">
  <path d="M 339 437  C 342.36 437  345 439.64  345 443  C 345 446.36  342.36 449  339 449  C 335.64 449  333 446.36  333 443  C 333 439.64  335.64 437  339 437  Z " fill-rule="nonzero" fill="#f0f0f0" stroke="none" />
  <path d="M 339 437.5  C 342.08 437.5  344.5 439.92  344.5 443  C 344.5 446.08  342.08 448.5  339 448.5  C 335.92 448.5  333.5 446.08  333.5 443  C 333.5 439.92  335.92 437.5  339 437.5  Z " stroke-width="1" stroke="#797979" fill="none" />
  <path d="M 339 446  C 337.32 446  336 444.68  336 443  C 336 441.32  337.32 440  339 440  C 340.68 440  342 441.32  342 443  C 342 444.68  340.68 446  339 446  " fill-rule="nonzero" fill="#797979" stroke="none" />
</svg>