<?xml version="1.0" encoding="utf-8"?>
<svg version="1.1" xmlns:xlink="http://www.w3.org/1999/xlink" width="340px" height="150px" xmlns="http://www.w3.org/2000/svg">
  <g transform="matrix(1 0 0 1 -550 -210 )">
    <path d="M 551 214  A 3 3 0 0 1 554 211 L 886 211  A 3 3 0 0 1 889 214 L 889 356  A 3 3 0 0 1 886 359 L 554 359  A 3 3 0 0 1 551 356 L 551 214  Z " fill-rule="nonzero" fill="#ff3399" stroke="none" fill-opacity="0.0980392156862745" />
    <path d="M 550.5 214  A 3.5 3.5 0 0 1 554 210.5 L 886 210.5  A 3.5 3.5 0 0 1 889.5 214 L 889.5 356  A 3.5 3.5 0 0 1 886 359.5 L 554 359.5  A 3.5 3.5 0 0 1 550.5 356 L 550.5 214  Z " stroke-width="1" stroke-dasharray="9,4" stroke="#ff3399" fill="none" stroke-dashoffset="0.5" />
  </g>
</svg>