<?xml version="1.0" encoding="utf-8"?>
<svg version="1.1" xmlns:xlink="http://www.w3.org/1999/xlink" width="12px" height="12px" viewBox="333 350  12 12" xmlns="http://www.w3.org/2000/svg">
  <path d="M 339 350  C 342.36 350  345 352.64  345 356  C 345 359.36  342.36 362  339 362  C 335.64 362  333 359.36  333 356  C 333 352.64  335.64 350  339 350  Z " fill-rule="nonzero" fill="#f0f0f0" stroke="none" />
  <path d="M 339 350.5  C 342.08 350.5  344.5 352.92  344.5 356  C 344.5 359.08  342.08 361.5  339 361.5  C 335.92 361.5  333.5 359.08  333.5 356  C 333.5 352.92  335.92 350.5  339 350.5  Z " stroke-width="1" stroke="#797979" fill="none" />
  <path d="M 339 359  C 337.32 359  336 357.68  336 356  C 336 354.32  337.32 353  339 353  C 340.68 353  342 354.32  342 356  C 342 357.68  340.68 359  339 359  " fill-rule="nonzero" fill="#797979" stroke="none" />
</svg>