<?xml version="1.0" encoding="utf-8"?>
<svg version="1.1" xmlns:xlink="http://www.w3.org/1999/xlink" width="10px" height="17px" preserveAspectRatio="xMidYMin meet" viewBox="575 255  8 17" xmlns="http://www.w3.org/2000/svg">
  <path d="M 530 266.5  L 547 266.5  A 3 3 0 0 0 550.5 263.5 A 3 3 0 0 1 553.5 260.5 L 574 260.5  A 5 5 0 0 1 579.5 265.5 L 579.5 272  " stroke-width="1" stroke="#ff3399" fill="none" />
  <path d="M 532 263.5  A 3 3 0 0 0 529 266.5 A 3 3 0 0 0 532 269.5 A 3 3 0 0 0 535 266.5 A 3 3 0 0 0 532 263.5 Z " fill-rule="nonzero" fill="#ff3399" stroke="none" />
</svg>