<?xml version="1.0" encoding="utf-8"?>
<svg version="1.1" xmlns:xlink="http://www.w3.org/1999/xlink" width="670px" height="233px" xmlns="http://www.w3.org/2000/svg">
  <g transform="matrix(1 0 0 1 -413 -308 )">
    <path d="M 414 312  A 3 3 0 0 1 417 309 L 1079 309  A 3 3 0 0 1 1082 312 L 1082 537  A 3 3 0 0 1 1079 540 L 417 540  A 3 3 0 0 1 414 537 L 414 312  Z " fill-rule="nonzero" fill="#ff3399" stroke="none" fill-opacity="0.0980392156862745" />
    <path d="M 413.5 312  A 3.5 3.5 0 0 1 417 308.5 L 1079 308.5  A 3.5 3.5 0 0 1 1082.5 312 L 1082.5 537  A 3.5 3.5 0 0 1 1079 540.5 L 417 540.5  A 3.5 3.5 0 0 1 413.5 537 L 413.5 312  Z " stroke-width="1" stroke-dasharray="9,4" stroke="#ff3399" fill="none" stroke-dashoffset="0.5" />
  </g>
</svg>