<?xml version="1.0" encoding="utf-8"?>
<svg version="1.1" xmlns:xlink="http://www.w3.org/1999/xlink" width="12px" height="12px" viewBox="333 435  12 12" xmlns="http://www.w3.org/2000/svg">
  <path d="M 339 435  C 342.36 435  345 437.64  345 441  C 345 444.36  342.36 447  339 447  C 335.64 447  333 444.36  333 441  C 333 437.64  335.64 435  339 435  Z " fill-rule="nonzero" fill="#ffffff" stroke="none" />
  <path d="M 339 435.5  C 342.08 435.5  344.5 437.92  344.5 441  C 344.5 444.08  342.08 446.5  339 446.5  C 335.92 446.5  333.5 444.08  333.5 441  C 333.5 437.92  335.92 435.5  339 435.5  Z " stroke-width="1" stroke="#797979" fill="none" />
  <path d="M 339 444  C 337.32 444  336 442.68  336 441  C 336 439.32  337.32 438  339 438  C 340.68 438  342 439.32  342 441  C 342 442.68  340.68 444  339 444  " fill-rule="nonzero" fill="#797979" stroke="none" />
</svg>