<?xml version="1.0" encoding="utf-8"?>
<svg version="1.1" xmlns:xlink="http://www.w3.org/1999/xlink" width="420px" height="42px" xmlns="http://www.w3.org/2000/svg">
  <g transform="matrix(1 0 0 1 -475 -177 )">
    <path d="M 476 181  A 3 3 0 0 1 479 178 L 891 178  A 3 3 0 0 1 894 181 L 894 215  A 3 3 0 0 1 891 218 L 479 218  A 3 3 0 0 1 476 215 L 476 181  Z " fill-rule="nonzero" fill="#ff3399" stroke="none" fill-opacity="0.0980392156862745" />
    <path d="M 475.5 181  A 3.5 3.5 0 0 1 479 177.5 L 891 177.5  A 3.5 3.5 0 0 1 894.5 181 L 894.5 215  A 3.5 3.5 0 0 1 891 218.5 L 479 218.5  A 3.5 3.5 0 0 1 475.5 215 L 475.5 181  Z " stroke-width="1" stroke-dasharray="9,4" stroke="#ff3399" fill="none" stroke-dashoffset="0.5" />
  </g>
</svg>