<?xml version="1.0" encoding="utf-8"?>
<svg version="1.1" xmlns:xlink="http://www.w3.org/1999/xlink" width="380px" height="46px" xmlns="http://www.w3.org/2000/svg">
  <g transform="matrix(1 0 0 1 -433 -244 )">
    <path d="M 434 248  A 3 3 0 0 1 437 245 L 809 245  A 3 3 0 0 1 812 248 L 812 286  A 3 3 0 0 1 809 289 L 437 289  A 3 3 0 0 1 434 286 L 434 248  Z " fill-rule="nonzero" fill="#ff3399" stroke="none" fill-opacity="0.0980392156862745" />
    <path d="M 433.5 248  A 3.5 3.5 0 0 1 437 244.5 L 809 244.5  A 3.5 3.5 0 0 1 812.5 248 L 812.5 286  A 3.5 3.5 0 0 1 809 289.5 L 437 289.5  A 3.5 3.5 0 0 1 433.5 286 L 433.5 248  Z " stroke-width="1" stroke-dasharray="9,4" stroke="#ff3399" fill="none" stroke-dashoffset="0.5" />
  </g>
</svg>