<?xml version="1.0" encoding="utf-8"?>
<svg version="1.1" xmlns:xlink="http://www.w3.org/1999/xlink" width="380px" height="168px" xmlns="http://www.w3.org/2000/svg">
  <g transform="matrix(1 0 0 1 -433 -300 )">
    <path d="M 434 304  A 3 3 0 0 1 437 301 L 809 301  A 3 3 0 0 1 812 304 L 812 464  A 3 3 0 0 1 809 467 L 437 467  A 3 3 0 0 1 434 464 L 434 304  Z " fill-rule="nonzero" fill="#ff3399" stroke="none" fill-opacity="0.0980392156862745" />
    <path d="M 433.5 304  A 3.5 3.5 0 0 1 437 300.5 L 809 300.5  A 3.5 3.5 0 0 1 812.5 304 L 812.5 464  A 3.5 3.5 0 0 1 809 467.5 L 437 467.5  A 3.5 3.5 0 0 1 433.5 464 L 433.5 304  Z " stroke-width="1" stroke-dasharray="9,4" stroke="#ff3399" fill="none" stroke-dashoffset="0.5" />
  </g>
</svg>