<?xml version="1.0" encoding="utf-8"?>
<svg version="1.1" xmlns:xlink="http://www.w3.org/1999/xlink" width="380px" height="69px" xmlns="http://www.w3.org/2000/svg">
  <g transform="matrix(1 0 0 1 -433 -628 )">
    <path d="M 434 632  A 3 3 0 0 1 437 629 L 809 629  A 3 3 0 0 1 812 632 L 812 693  A 3 3 0 0 1 809 696 L 437 696  A 3 3 0 0 1 434 693 L 434 632  Z " fill-rule="nonzero" fill="#ff3399" stroke="none" fill-opacity="0.0980392156862745" />
    <path d="M 433.5 632  A 3.5 3.5 0 0 1 437 628.5 L 809 628.5  A 3.5 3.5 0 0 1 812.5 632 L 812.5 693  A 3.5 3.5 0 0 1 809 696.5 L 437 696.5  A 3.5 3.5 0 0 1 433.5 693 L 433.5 632  Z " stroke-width="1" stroke-dasharray="9,4" stroke="#ff3399" fill="none" stroke-dashoffset="0.5" />
  </g>
</svg>