<?xml version="1.0" encoding="utf-8"?>
<svg version="1.1" xmlns:xlink="http://www.w3.org/1999/xlink" width="79px" height="79px" xmlns="http://www.w3.org/2000/svg">
  <g transform="matrix(1 0 0 1 -24 -190 )">
    <path d="M 25 194  A 3 3 0 0 1 28 191 L 99 191  A 3 3 0 0 1 102 194 L 102 265  A 3 3 0 0 1 99 268 L 28 268  A 3 3 0 0 1 25 265 L 25 194  Z " fill-rule="nonzero" fill="#000000" stroke="none" fill-opacity="0.0196078431372549" />
    <path d="M 24.5 194  A 3.5 3.5 0 0 1 28 190.5 L 99 190.5  A 3.5 3.5 0 0 1 102.5 194 L 102.5 265  A 3.5 3.5 0 0 1 99 268.5 L 28 268.5  A 3.5 3.5 0 0 1 24.5 265 L 24.5 194  Z " stroke-width="1" stroke-dasharray="9,4" stroke="#d9d9d9" fill="none" stroke-dashoffset="0.5" />
  </g>
</svg>