<?xml version="1.0" encoding="utf-8"?>
<svg version="1.1" xmlns:xlink="http://www.w3.org/1999/xlink" width="12px" height="12px" viewBox="15 51.5  12 12" xmlns="http://www.w3.org/2000/svg">
  <path d="M 21 51.5  C 24.36 51.5  27 54.14  27 57.5  C 27 60.86  24.36 63.5  21 63.5  C 17.64 63.5  15 60.86  15 57.5  C 15 54.14  17.64 51.5  21 51.5  Z " fill-rule="nonzero" fill="#f0f0f0" stroke="none" />
  <path d="M 21 52  C 24.08 52  26.5 54.42  26.5 57.5  C 26.5 60.58  24.08 63  21 63  C 17.92 63  15.5 60.58  15.5 57.5  C 15.5 54.42  17.92 52  21 52  Z " stroke-width="1" stroke="#797979" fill="none" />
  <path d="M 21 60.5  C 19.32 60.5  18 59.18  18 57.5  C 18 55.82  19.32 54.5  21 54.5  C 22.68 54.5  24 55.82  24 57.5  C 24 59.18  22.68 60.5  21 60.5  " fill-rule="nonzero" fill="#797979" stroke="none" />
</svg>