<?xml version="1.0" encoding="utf-8"?>
<svg version="1.1" xmlns:xlink="http://www.w3.org/1999/xlink" width="12px" height="12px" viewBox="135 51.5  12 12" xmlns="http://www.w3.org/2000/svg">
  <path d="M 141 51.5  C 144.36 51.5  147 54.14  147 57.5  C 147 60.86  144.36 63.5  141 63.5  C 137.64 63.5  135 60.86  135 57.5  C 135 54.14  137.64 51.5  141 51.5  Z " fill-rule="nonzero" fill="#f0f0f0" stroke="none" />
  <path d="M 141 52  C 144.08 52  146.5 54.42  146.5 57.5  C 146.5 60.58  144.08 63  141 63  C 137.92 63  135.5 60.58  135.5 57.5  C 135.5 54.42  137.92 52  141 52  Z " stroke-width="1" stroke="#797979" fill="none" />
  <path d="M 141 60.5  C 139.32 60.5  138 59.18  138 57.5  C 138 55.82  139.32 54.5  141 54.5  C 142.68 54.5  144 55.82  144 57.5  C 144 59.18  142.68 60.5  141 60.5  " fill-rule="nonzero" fill="#797979" stroke="none" />
</svg>