<?xml version="1.0" encoding="utf-8"?>
<svg version="1.1" xmlns:xlink="http://www.w3.org/1999/xlink" width="12px" height="12px" viewBox="255 51.5  12 12" xmlns="http://www.w3.org/2000/svg">
  <path d="M 261 51.5  C 264.36 51.5  267 54.14  267 57.5  C 267 60.86  264.36 63.5  261 63.5  C 257.64 63.5  255 60.86  255 57.5  C 255 54.14  257.64 51.5  261 51.5  Z " fill-rule="nonzero" fill="#ffffff" stroke="none" />
  <path d="M 261 52  C 264.08 52  266.5 54.42  266.5 57.5  C 266.5 60.58  264.08 63  261 63  C 257.92 63  255.5 60.58  255.5 57.5  C 255.5 54.42  257.92 52  261 52  Z " stroke-width="1" stroke="#797979" fill="none" />
  <path d="M 261 60.5  C 259.32 60.5  258 59.18  258 57.5  C 258 55.82  259.32 54.5  261 54.5  C 262.68 54.5  264 55.82  264 57.5  C 264 59.18  262.68 60.5  261 60.5  " fill-rule="nonzero" fill="#797979" stroke="none" />
</svg>