<?xml version="1.0" encoding="utf-8"?>
<svg version="1.1" xmlns:xlink="http://www.w3.org/1999/xlink" width="12px" height="12px" viewBox="134 40.5  12 12" xmlns="http://www.w3.org/2000/svg">
  <path d="M 140 40.5  C 143.36 40.5  146 43.14  146 46.5  C 146 49.86  143.36 52.5  140 52.5  C 136.64 52.5  134 49.86  134 46.5  C 134 43.14  136.64 40.5  140 40.5  Z " fill-rule="nonzero" fill="#f0f0f0" stroke="none" />
  <path d="M 140 41  C 143.08 41  145.5 43.42  145.5 46.5  C 145.5 49.58  143.08 52  140 52  C 136.92 52  134.5 49.58  134.5 46.5  C 134.5 43.42  136.92 41  140 41  Z " stroke-width="1" stroke="#797979" fill="none" />
  <path d="M 140 49.5  C 138.32 49.5  137 48.18  137 46.5  C 137 44.82  138.32 43.5  140 43.5  C 141.68 43.5  143 44.82  143 46.5  C 143 48.18  141.68 49.5  140 49.5  " fill-rule="nonzero" fill="#797979" stroke="none" />
</svg>