<?xml version="1.0" encoding="utf-8"?>
<svg version="1.1" xmlns:xlink="http://www.w3.org/1999/xlink" width="12px" height="12px" viewBox="135 52.5  12 12" xmlns="http://www.w3.org/2000/svg">
  <path d="M 141 52.5  C 144.36 52.5  147 55.14  147 58.5  C 147 61.86  144.36 64.5  141 64.5  C 137.64 64.5  135 61.86  135 58.5  C 135 55.14  137.64 52.5  141 52.5  Z " fill-rule="nonzero" fill="#ffffff" stroke="none" />
  <path d="M 141 53  C 144.08 53  146.5 55.42  146.5 58.5  C 146.5 61.58  144.08 64  141 64  C 137.92 64  135.5 61.58  135.5 58.5  C 135.5 55.42  137.92 53  141 53  Z " stroke-width="1" stroke="#797979" fill="none" />
  <path d="M 141 61.5  C 139.32 61.5  138 60.18  138 58.5  C 138 56.82  139.32 55.5  141 55.5  C 142.68 55.5  144 56.82  144 58.5  C 144 60.18  142.68 61.5  141 61.5  " fill-rule="nonzero" fill="#797979" stroke="none" />
</svg>