<?xml version="1.0" encoding="utf-8"?>
<svg version="1.1" xmlns:xlink="http://www.w3.org/1999/xlink" width="334px" height="83px" xmlns="http://www.w3.org/2000/svg">
  <g transform="matrix(1 0 0 1 -14 -41 )">
    <path d="M 15 44  A 2 2 0 0 1 17 42 L 345 42  A 2 2 0 0 1 347 44 L 347 121  A 2 2 0 0 1 345 123 L 17 123  A 2 2 0 0 1 15 121 L 15 44  Z " fill-rule="nonzero" fill="#ffffff" stroke="none" />
    <path d="M 14.5 44  A 2.5 2.5 0 0 1 17 41.5 L 345 41.5  A 2.5 2.5 0 0 1 347.5 44 L 347.5 121  A 2.5 2.5 0 0 1 345 123.5 L 17 123.5  A 2.5 2.5 0 0 1 14.5 121 L 14.5 44  Z " stroke-width="1" stroke="#797979" fill="none" stroke-opacity="0.745098039215686" />
  </g>
</svg>