<?xml version="1.0" encoding="utf-8"?>
<svg version="1.1" xmlns:xlink="http://www.w3.org/1999/xlink" width="28px" height="22px" xmlns="http://www.w3.org/2000/svg">
  <g transform="matrix(1 0 0 1 -172 -90 )">
    <path d="M 11.0322916666667 10.0018028846154  C 11.8538194444444 9.25701121794872  12.8430555555556 8.88461538461538  14 8.88461538461539  C 15.1569444444444 8.88461538461538  16.1461805555556 9.25701121794872  16.9677083333333 10.0018028846154  C 17.7892361111111 10.7465945512821  18.2 11.6434294871795  18.2 12.6923076923077  C 18.2 13.7411858974359  17.7892361111111 14.6380208333333  16.9677083333333 15.3828125  C 16.1461805555556 16.1276041666667  15.1569444444444 16.5  14 16.5  C 12.8430555555556 16.5  11.8538194444444 16.1276041666667  11.0322916666667 15.3828125  C 10.2107638888889 14.6380208333333  9.8 13.7411858974359  9.8 12.6923076923077  C 9.8 11.6434294871795  10.2107638888889 10.7465945512821  11.0322916666667 10.0018028846154  Z M 21 3.38461538461539  L 24.2666666666667 3.38461538461539  C 25.2972222222222 3.38461538461539  26.1770833333333 3.71514423076923  26.90625 4.37620192307692  C 27.6354166666667 5.03725961538462  28 5.8349358974359  28 6.76923076923077  L 28 18.6153846153846  C 28 19.5496794871795  27.6354166666667 20.3473557692308  26.90625 21.0084134615385  C 26.1770833333333 21.6694711538462  25.2972222222222 22  24.2666666666667 22  L 3.73333333333333 22  C 2.70277777777778 22  1.82291666666667 21.6694711538462  1.09375 21.0084134615385  C 0.364583333333333 20.3473557692308  0 19.5496794871795  0 18.6153846153846  L 0 6.76923076923077  C 0 5.8349358974359  0.364583333333333 5.03725961538462  1.09375 4.37620192307692  C 1.82291666666667 3.71514423076923  2.70277777777778 3.38461538461539  3.73333333333333 3.38461538461539  L 7 3.38461538461539  L 7.74375 1.58653846153846  C 7.92847222222222 1.15464743589744  8.26631944444445 0.782251602564101  8.75729166666667 0.469350961538461  C 9.24826388888889 0.156450320512823  9.75138888888889 0  10.2666666666667 0  L 17.7333333333333 0  C 18.2486111111111 0  18.7517361111111 0.156450320512823  19.2427083333333 0.469350961538461  C 19.7336805555556 0.782251602564101  20.0715277777778 1.15464743589744  20.25625 1.58653846153846  L 21 3.38461538461539  Z M 9.384375 16.8768028846154  C 10.6628472222222 18.0358573717949  12.2013888888889 18.6153846153846  14 18.6153846153846  C 15.7986111111111 18.6153846153846  17.3371527777778 18.0358573717949  18.615625 16.8768028846154  C 19.8940972222222 15.7177483974359  20.5333333333333 14.3229166666667  20.5333333333333 12.6923076923077  C 20.5333333333333 11.0616987179487  19.8940972222222 9.66686698717949  18.615625 8.5078125  C 17.3371527777778 7.34875801282051  15.7986111111111 6.76923076923077  14 6.76923076923077  C 12.2013888888889 6.76923076923077  10.6628472222222 7.34875801282051  9.384375 8.5078125  C 8.10590277777778 9.66686698717949  7.46666666666667 11.0616987179487  7.46666666666667 12.6923076923077  C 7.46666666666667 14.3229166666667  8.10590277777778 15.7177483974359  9.384375 16.8768028846154  Z " fill-rule="nonzero" fill="#333333" stroke="none" transform="matrix(1 0 0 1 172 90 )" />
  </g>
</svg>