<?xml version="1.0" encoding="utf-8"?>
<svg version="1.1" xmlns:xlink="http://www.w3.org/1999/xlink" width="10px" height="16px" preserveAspectRatio="xMidYMin meet" viewBox="466 75  8 16" xmlns="http://www.w3.org/2000/svg">
  <path d="M 445 86.5  L 467 86.5  A 3 3 0 0 0 470.5 83.5 A 3 3 0 0 1 473.5 80.5 L 489 80.5  A 5 5 0 0 1 494.5 85.5 L 494.5 92  " stroke-width="1" stroke="#ff3399" fill="none" />
  <path d="M 447 83.5  A 3 3 0 0 0 444 86.5 A 3 3 0 0 0 447 89.5 A 3 3 0 0 0 450 86.5 A 3 3 0 0 0 447 83.5 Z " fill-rule="nonzero" fill="#ff3399" stroke="none" />
</svg>