<?xml version="1.0" encoding="utf-8"?>
<svg version="1.1" xmlns:xlink="http://www.w3.org/1999/xlink" width="120px" height="120px" xmlns="http://www.w3.org/2000/svg">
  <g transform="matrix(1 0 0 1 -90 -25 )">
    <path d="M 150 25  C 183.6 25  210 51.4  210 85  C 210 118.6  183.6 145  150 145  C 116.4 145  90 118.6  90 85  C 90 51.4  116.4 25  150 25  Z " fill-rule="nonzero" fill="#70b603" stroke="none" />
    <path d="M 150 25.5  C 183.32 25.5  209.5 51.68  209.5 85  C 209.5 118.32  183.32 144.5  150 144.5  C 116.68 144.5  90.5 118.32  90.5 85  C 90.5 51.68  116.68 25.5  150 25.5  Z " stroke-width="1" stroke="#70b603" fill="none" />
  </g>
</svg>