<?xml version="1.0" encoding="utf-8"?>
<svg version="1.1" xmlns:xlink="http://www.w3.org/1999/xlink" width="540px" height="70px" xmlns="http://www.w3.org/2000/svg">
  <g transform="matrix(1 0 0 1 -423 -182 )">
    <path d="M 424 186  A 3 3 0 0 1 427 183 L 959 183  A 3 3 0 0 1 962 186 L 962 248  A 3 3 0 0 1 959 251 L 427 251  A 3 3 0 0 1 424 248 L 424 186  Z " fill-rule="nonzero" fill="#ff3399" stroke="none" fill-opacity="0.0980392156862745" />
    <path d="M 423.5 186  A 3.5 3.5 0 0 1 427 182.5 L 959 182.5  A 3.5 3.5 0 0 1 962.5 186 L 962.5 248  A 3.5 3.5 0 0 1 959 251.5 L 427 251.5  A 3.5 3.5 0 0 1 423.5 248 L 423.5 186  Z " stroke-width="1" stroke-dasharray="9,4" stroke="#ff3399" fill="none" stroke-dashoffset="0.5" />
  </g>
</svg>