<?xml version="1.0" encoding="utf-8"?>
<svg version="1.1" xmlns:xlink="http://www.w3.org/1999/xlink" width="540px" height="292px" xmlns="http://www.w3.org/2000/svg">
  <g transform="matrix(1 0 0 1 -423 -312 )">
    <path d="M 424 316  A 3 3 0 0 1 427 313 L 959 313  A 3 3 0 0 1 962 316 L 962 600  A 3 3 0 0 1 959 603 L 427 603  A 3 3 0 0 1 424 600 L 424 316  Z " fill-rule="nonzero" fill="#ff3399" stroke="none" fill-opacity="0.0980392156862745" />
    <path d="M 423.5 316  A 3.5 3.5 0 0 1 427 312.5 L 959 312.5  A 3.5 3.5 0 0 1 962.5 316 L 962.5 600  A 3.5 3.5 0 0 1 959 603.5 L 427 603.5  A 3.5 3.5 0 0 1 423.5 600 L 423.5 316  Z " stroke-width="1" stroke-dasharray="9,4" stroke="#ff3399" fill="none" stroke-dashoffset="0.5" />
  </g>
</svg>