<?xml version="1.0" encoding="utf-8"?>
<svg version="1.1" xmlns:xlink="http://www.w3.org/1999/xlink" width="32px" height="10px" preserveAspectRatio="xMinYMid meet" viewBox="533 152  32 8" xmlns="http://www.w3.org/2000/svg">
  <path d="M 534 156.5  L 557 156.5  A 3 3 0 0 0 560.5 153.5 A 3 3 0 0 1 563.5 150.5 L 578 150.5  A 5 5 0 0 1 583.5 155.5 L 583.5 162  " stroke-width="1" stroke="#ff3399" fill="none" />
  <path d="M 536 153.5  A 3 3 0 0 0 533 156.5 A 3 3 0 0 0 536 159.5 A 3 3 0 0 0 539 156.5 A 3 3 0 0 0 536 153.5 Z " fill-rule="nonzero" fill="#ff3399" stroke="none" />
</svg>