<?xml version="1.0" encoding="utf-8"?>
<svg version="1.1" xmlns:xlink="http://www.w3.org/1999/xlink" width="21px" height="21px" xmlns="http://www.w3.org/2000/svg">
  <g transform="matrix(1 0 0 1 -192 -621 )">
    <path d="M 21 10.5  C 21 16.298625  16.298625 21  10.5 21  C 4.701375 21  0 16.298625  0 10.5  C 0 4.701375  4.701375 0  10.5 0  C 16.298625 0  21 4.701375  21 10.5  Z M 4.69524999316406 11.1597500068359  L 8.1585 14.6229999931641  C 8.3636261974104 14.8281802897622  8.64186949661774 14.9434539290132  8.93200000341797 14.9434539290132  C 9.2221305102182 14.9434539290132  9.50037380942554 14.8281802897622  9.70550000683594 14.6229999931641  L 16.3362500068359 7.99224999316406  C 16.5413949581372 7.78710503914328  16.6566441914967 7.50886877430562  16.6566441914967 7.21875  C 16.6566441914967 6.61460892199559  16.1668910814224 6.12485581192128  15.562750003418 6.12485581192128  C 15.2726312240874 6.12485581192128  14.9943949548545 6.24010504926195  14.78925 6.44525000683594  L 8.88474999316406 12.2552499931641  L 6.24225 9.61275  C 6.03710504420261 9.40760504420261  5.75886877532313 9.29235580808864  5.46874999658203 9.29235580808864  C 4.86460891457322 9.29235580808864  4.3748558012527 9.78210892140916  4.3748558012527 10.386250003418  C 4.3748558012527 10.6763687821591  4.49010503736667 10.9546050510386  4.69524999316406 11.1597500068359  Z " fill-rule="nonzero" fill="#aaaaaa" stroke="none" transform="matrix(1 0 0 1 192 621 )" />
  </g>
</svg>