<?xml version="1.0" encoding="utf-8"?>
<svg version="1.1" xmlns:xlink="http://www.w3.org/1999/xlink" width="12px" height="12px" viewBox="270 213  12 12" xmlns="http://www.w3.org/2000/svg">
  <path d="M 276 213  C 279.36 213  282 215.64  282 219  C 282 222.36  279.36 225  276 225  C 272.64 225  270 222.36  270 219  C 270 215.64  272.64 213  276 213  Z " fill-rule="nonzero" fill="#f0f0f0" stroke="none" />
  <path d="M 276 213.5  C 279.08 213.5  281.5 215.92  281.5 219  C 281.5 222.08  279.08 224.5  276 224.5  C 272.92 224.5  270.5 222.08  270.5 219  C 270.5 215.92  272.92 213.5  276 213.5  Z " stroke-width="1" stroke="#797979" fill="none" />
  <path d="M 276 222  C 274.32 222  273 220.68  273 219  C 273 217.32  274.32 216  276 216  C 277.68 216  279 217.32  279 219  C 279 220.68  277.68 222  276 222  " fill-rule="nonzero" fill="#797979" stroke="none" />
</svg>