<?xml version="1.0" encoding="utf-8"?>
<svg version="1.1" xmlns:xlink="http://www.w3.org/1999/xlink" width="12px" height="12px" viewBox="136 213  12 12" xmlns="http://www.w3.org/2000/svg">
  <path d="M 142 213  C 145.36 213  148 215.64  148 219  C 148 222.36  145.36 225  142 225  C 138.64 225  136 222.36  136 219  C 136 215.64  138.64 213  142 213  Z " fill-rule="nonzero" fill="#ffffff" stroke="none" />
  <path d="M 142 213.5  C 145.08 213.5  147.5 215.92  147.5 219  C 147.5 222.08  145.08 224.5  142 224.5  C 138.92 224.5  136.5 222.08  136.5 219  C 136.5 215.92  138.92 213.5  142 213.5  Z " stroke-width="1" stroke="#8080ff" fill="none" />
  <path d="M 142 222  C 140.32 222  139 220.68  139 219  C 139 217.32  140.32 216  142 216  C 143.68 216  145 217.32  145 219  C 145 220.68  143.68 222  142 222  " fill-rule="nonzero" fill="#8080ff" stroke="none" />
</svg>