<?xml version="1.0" encoding="utf-8"?>
<svg version="1.1" xmlns:xlink="http://www.w3.org/1999/xlink" width="12px" height="12px" viewBox="394 213  12 12" xmlns="http://www.w3.org/2000/svg">
  <path d="M 400 213  C 403.36 213  406 215.64  406 219  C 406 222.36  403.36 225  400 225  C 396.64 225  394 222.36  394 219  C 394 215.64  396.64 213  400 213  Z " fill-rule="nonzero" fill="#ffffff" stroke="none" />
  <path d="M 400 213.5  C 403.08 213.5  405.5 215.92  405.5 219  C 405.5 222.08  403.08 224.5  400 224.5  C 396.92 224.5  394.5 222.08  394.5 219  C 394.5 215.92  396.92 213.5  400 213.5  Z " stroke-width="1" stroke="#797979" fill="none" />
  <path d="M 400 222  C 398.32 222  397 220.68  397 219  C 397 217.32  398.32 216  400 216  C 401.68 216  403 217.32  403 219  C 403 220.68  401.68 222  400 222  " fill-rule="nonzero" fill="#797979" stroke="none" />
</svg>