<?xml version="1.0" encoding="utf-8"?>
<svg version="1.1" xmlns:xlink="http://www.w3.org/1999/xlink" width="32px" height="28px" xmlns="http://www.w3.org/2000/svg">
  <defs>
    <mask fill="white" id="clip1">
      <path d="M 0 28  L 32 0  L 32 8  L 32 20  C 32 24.48  28.48 28  24 28  L 0 28  Z " fill-rule="evenodd" />
    </mask>
  </defs>
  <g transform="matrix(1 0 0 1 -164 -12 )">
    <path d="M 0 28  L 32 0  L 32 8  L 32 20  C 32 24.48  28.48 28  24 28  L 0 28  Z " fill-rule="nonzero" fill="#8080ff" stroke="none" transform="matrix(1 0 0 1 164 12 )" />
    <path d="M 0 28  L 32 0  L 32 8  L 32 20  C 32 24.48  28.48 28  24 28  L 0 28  Z " stroke-width="2" stroke="#797979" fill="none" transform="matrix(1 0 0 1 164 12 )" mask="url(#clip1)" />
  </g>
</svg>