<?xml version="1.0" encoding="utf-8"?>
<svg version="1.1" xmlns:xlink="http://www.w3.org/1999/xlink" width="12px" height="12px" viewBox="270 295  12 12" xmlns="http://www.w3.org/2000/svg">
  <path d="M 276 295  C 279.36 295  282 297.64  282 301  C 282 304.36  279.36 307  276 307  C 272.64 307  270 304.36  270 301  C 270 297.64  272.64 295  276 295  Z " fill-rule="nonzero" fill="#ffffff" stroke="none" />
  <path d="M 276 295.5  C 279.08 295.5  281.5 297.92  281.5 301  C 281.5 304.08  279.08 306.5  276 306.5  C 272.92 306.5  270.5 304.08  270.5 301  C 270.5 297.92  272.92 295.5  276 295.5  Z " stroke-width="1" stroke="#797979" fill="none" />
  <path d="M 276 304  C 274.32 304  273 302.68  273 301  C 273 299.32  274.32 298  276 298  C 277.68 298  279 299.32  279 301  C 279 302.68  277.68 304  276 304  " fill-rule="nonzero" fill="#797979" stroke="none" />
</svg>