<?xml version="1.0" encoding="utf-8"?>
<svg version="1.1" xmlns:xlink="http://www.w3.org/1999/xlink" width="12px" height="12px" viewBox="136 295  12 12" xmlns="http://www.w3.org/2000/svg">
  <path d="M 142 295  C 145.36 295  148 297.64  148 301  C 148 304.36  145.36 307  142 307  C 138.64 307  136 304.36  136 301  C 136 297.64  138.64 295  142 295  Z " fill-rule="nonzero" fill="#f0f0f0" stroke="none" />
  <path d="M 142 295.5  C 145.08 295.5  147.5 297.92  147.5 301  C 147.5 304.08  145.08 306.5  142 306.5  C 138.92 306.5  136.5 304.08  136.5 301  C 136.5 297.92  138.92 295.5  142 295.5  Z " stroke-width="1" stroke="#8080ff" fill="none" />
  <path d="M 142 304  C 140.32 304  139 302.68  139 301  C 139 299.32  140.32 298  142 298  C 143.68 298  145 299.32  145 301  C 145 302.68  143.68 304  142 304  " fill-rule="nonzero" fill="#8080ff" stroke="none" />
</svg>