<?xml version="1.0" encoding="utf-8"?>
<svg version="1.1" xmlns:xlink="http://www.w3.org/1999/xlink" width="15px" height="15px" xmlns="http://www.w3.org/2000/svg">
  <g transform="matrix(1 0 0 1 -33 -20 )">
    <path d="M 40.5 20  C 44.7 20  48 23.3  48 27.5  C 48 31.7  44.7 35  40.5 35  C 36.3 35  33 31.7  33 27.5  C 33 23.3  36.3 20  40.5 20  Z " fill-rule="nonzero" fill="#409eff" stroke="none" />
    <path d="M 40.5 20.5  C 44.42 20.5  47.5 23.58  47.5 27.5  C 47.5 31.42  44.42 34.5  40.5 34.5  C 36.58 34.5  33.5 31.42  33.5 27.5  C 33.5 23.58  36.58 20.5  40.5 20.5  Z " stroke-width="1" stroke="#409eff" fill="none" />
  </g>
</svg>