<?xml version="1.0" encoding="utf-8"?>
<svg version="1.1" xmlns:xlink="http://www.w3.org/1999/xlink" width="350px" height="495px" xmlns="http://www.w3.org/2000/svg">
  <g transform="matrix(1 0 0 1 -433 -20 )">
    <path d="M 434 24  A 3 3 0 0 1 437 21 L 779 21  A 3 3 0 0 1 782 24 L 782 511  A 3 3 0 0 1 779 514 L 437 514  A 3 3 0 0 1 434 511 L 434 24  Z " fill-rule="nonzero" fill="#ff3399" stroke="none" fill-opacity="0.0980392156862745" />
    <path d="M 433.5 24  A 3.5 3.5 0 0 1 437 20.5 L 779 20.5  A 3.5 3.5 0 0 1 782.5 24 L 782.5 511  A 3.5 3.5 0 0 1 779 514.5 L 437 514.5  A 3.5 3.5 0 0 1 433.5 511 L 433.5 24  Z " stroke-width="1" stroke-dasharray="9,4" stroke="#ff3399" fill="none" stroke-dashoffset="0.5" />
  </g>
</svg>