<?xml version="1.0" encoding="utf-8"?>
<svg version="1.1" xmlns:xlink="http://www.w3.org/1999/xlink" width="12px" height="12px" viewBox="333 290  12 12" xmlns="http://www.w3.org/2000/svg">
  <path d="M 339 290  C 342.36 290  345 292.64  345 296  C 345 299.36  342.36 302  339 302  C 335.64 302  333 299.36  333 296  C 333 292.64  335.64 290  339 290  Z " fill-rule="nonzero" fill="#ffffff" stroke="none" />
  <path d="M 339 290.5  C 342.08 290.5  344.5 292.92  344.5 296  C 344.5 299.08  342.08 301.5  339 301.5  C 335.92 301.5  333.5 299.08  333.5 296  C 333.5 292.92  335.92 290.5  339 290.5  Z " stroke-width="1" stroke="#797979" fill="none" />
  <path d="M 339 299  C 337.32 299  336 297.68  336 296  C 336 294.32  337.32 293  339 293  C 340.68 293  342 294.32  342 296  C 342 297.68  340.68 299  339 299  " fill-rule="nonzero" fill="#797979" stroke="none" />
</svg>