<?xml version="1.0" encoding="utf-8"?>
<svg version="1.1" xmlns:xlink="http://www.w3.org/1999/xlink" width="12px" height="12px" viewBox="333 370  12 12" xmlns="http://www.w3.org/2000/svg">
  <path d="M 339 370  C 342.36 370  345 372.64  345 376  C 345 379.36  342.36 382  339 382  C 335.64 382  333 379.36  333 376  C 333 372.64  335.64 370  339 370  Z " fill-rule="nonzero" fill="#f0f0f0" stroke="none" />
  <path d="M 339 370.5  C 342.08 370.5  344.5 372.92  344.5 376  C 344.5 379.08  342.08 381.5  339 381.5  C 335.92 381.5  333.5 379.08  333.5 376  C 333.5 372.92  335.92 370.5  339 370.5  Z " stroke-width="1" stroke="#797979" fill="none" />
  <path d="M 339 379  C 337.32 379  336 377.68  336 376  C 336 374.32  337.32 373  339 373  C 340.68 373  342 374.32  342 376  C 342 377.68  340.68 379  339 379  " fill-rule="nonzero" fill="#797979" stroke="none" />
</svg>