<?xml version="1.0" encoding="utf-8"?>
<svg version="1.1" xmlns:xlink="http://www.w3.org/1999/xlink" width="12px" height="12px" viewBox="333 209  12 12" xmlns="http://www.w3.org/2000/svg">
  <path d="M 339 209  C 342.36 209  345 211.64  345 215  C 345 218.36  342.36 221  339 221  C 335.64 221  333 218.36  333 215  C 333 211.64  335.64 209  339 209  Z " fill-rule="nonzero" fill="#ffffff" stroke="none" />
  <path d="M 339 209.5  C 342.08 209.5  344.5 211.92  344.5 215  C 344.5 218.08  342.08 220.5  339 220.5  C 335.92 220.5  333.5 218.08  333.5 215  C 333.5 211.92  335.92 209.5  339 209.5  Z " stroke-width="1" stroke="#797979" fill="none" />
  <path d="M 339 218  C 337.32 218  336 216.68  336 215  C 336 213.32  337.32 212  339 212  C 340.68 212  342 213.32  342 215  C 342 216.68  340.68 218  339 218  " fill-rule="nonzero" fill="#797979" stroke="none" />
</svg>