<svg t="1668045743105" class="icon" viewBox="0 0 1024 1024" version="1.1" xmlns="http://www.w3.org/2000/svg" p-id="2025" width="200" height="200"><path d="M512 512m-448 0a448 448 0 1 0 896 0 448 448 0 1 0-896 0Z" fill="#F0844E" p-id="2026"></path><path d="M1024 622L696 1024 512 492z" fill="#FFFFFF" opacity=".2" p-id="2027"></path><path d="M715.27 361.874c53.501 53.501 53.501 140.245 0 193.747L533.543 737.347c-11.716 11.716-30.71 11.716-42.426 0L318.583 564.813l202.94-202.94c53.501-53.501 140.245-53.501 193.747 0z" fill="#FFE6D9" p-id="2028"></path><path d="M308.874 361.874c53.501-53.502 140.245-53.502 193.747 0l202.94 202.94-172.535 172.533c-11.715 11.716-30.71 11.716-42.426 0L308.874 555.621c-53.502-53.502-53.502-140.246 0-193.747z" fill="#FFFFFF" p-id="2029"></path></svg>