<svg t="1668045871718" class="icon" viewBox="0 0 1024 1024" version="1.1" xmlns="http://www.w3.org/2000/svg" p-id="6785" width="200" height="200"><path d="M512.2048 511.6928m-445.4912 0a445.4912 445.4912 0 1 0 890.9824 0 445.4912 445.4912 0 1 0-890.9824 0Z" fill="#FFEFEB" p-id="6786"></path><path d="M766.3616 259.4304c-5.5296-19.9168-26.1632-31.5904-46.08-26.0096l-8.6016 2.3552c-15.5136-16.8448-35.1232-38.144-43.52-46.7968-14.7968-15.2576-33.1776-16.5888-54.528-13.0048-21.3504 3.584-82.0224 19.712-108.3392 30.6176-26.3168 10.9056-30.464 25.856-36.7616 57.6512-2.9696 15.104-5.1712 29.7472-6.6048 40.96l-4.7616 1.3312c-19.9168 5.5296-31.5904 26.1632-26.0096 46.08a11.85792 11.85792 0 0 0 14.6432 8.2432l52.0192-14.4896c8.8064 51.0976 53.2992 89.9584 106.8544 89.9584 59.904 0 108.4928-48.5888 108.4928-108.4928 0-13.8752-2.6112-27.136-7.3728-39.3216l52.3264-14.5408a11.78624 11.78624 0 0 0 8.2432-14.5408z" fill="#FF6B50" p-id="6787"></path><path d="M685.056 563.2512c-12.8 0-24.832 3.4304-35.2256 9.3696L485.5808 403.8656c-21.0432-21.6064-70.0928-22.6816-93.7472-3.9936-66.3552 52.3264-189.7472 162.6624-160.768 352.4096 2.2528 14.848 18.3808 27.1872 28.0064 27.1872 103.9872 0.0512 246.5792 0.8192 297.6256 1.0752 10.5472 0.0512 19.1488-8.4992 19.1488-19.0464v-148.1728l34.6112 31.744c3.328 3.0208 7.0144 5.376 10.9056 7.0656 4.352 4.1984 10.2912 6.7584 16.7936 6.7584 7.5776 0 14.336-3.4304 18.7904-8.8576a39.0144 39.0144 0 0 0 10.496-8.8576 39.2192 39.2192 0 0 0 8.96-27.4432c2.6624-1.1264 5.5808-1.7408 8.704-1.7408 12.4416 0 22.5792 10.1376 22.5792 22.5792v126.976c0 13.4656 10.9056 24.3712 24.3712 24.3712s24.3712-10.9056 24.3712-24.3712v-126.976c-0.1024-39.3216-32.0512-71.3216-71.3728-71.3216z" fill="#FF5A3E" p-id="6788"></path><path d="M707.8912 567.0912c-7.168-2.4576-14.848-3.7888-22.784-3.7888-12.8 0-24.832 3.4304-35.2256 9.3696L485.5808 403.8656c-21.0432-21.6064-70.0928-22.6816-93.7472-3.9936-50.1248 39.5264-132.7616 112.1792-157.696 227.1232a353.07008 353.07008 0 0 0 133.2224 57.4464c72.8064 14.848 144.9472 6.1952 208.5376-20.736v-50.432l34.6112 31.744c0.4096 0.3584 0.8704 0.6656 1.28 1.024a355.38944 355.38944 0 0 0 96.1024-78.9504z" fill="#FF6B50" p-id="6789"></path><path d="M572.1088 492.8l-86.528-88.9344c-21.0432-21.6064-70.0928-22.6816-93.7472-3.9936-41.6256 32.8192-105.6768 88.4736-140.4928 172.2368 117.76 22.4768 233.5232-9.7792 320.768-79.3088zM713.3184 262.3488c1.9456-9.472 3.3792-18.8928 4.608-28.3136l-6.2464 1.7408c-15.5136-16.8448-35.1232-38.144-43.52-46.7968-14.7968-15.2576-33.1776-16.5888-54.528-13.0048-21.3504 3.584-82.0224 19.712-108.3392 30.6176-26.3168 10.9056-30.464 25.856-36.7616 57.6512-2.9696 15.104-5.1712 29.7472-6.6048 40.96l-4.7616 1.3312c-19.9168 5.5296-31.5904 26.1632-26.0096 46.08a11.85792 11.85792 0 0 0 14.6432 8.2432l52.0192-14.4896c8.8064 51.0976 53.2992 89.9584 106.8544 89.9584 9.7792 0 19.2-1.4336 28.2624-3.84 33.1776-40.8064 58.5216-88.7808 73.472-142.08-0.2048-0.6144-0.4096-1.28-0.6144-1.8944l1.28-0.3584c2.2528-8.3968 4.4544-16.9984 6.2464-25.8048z" fill="#FF7F66" p-id="6790"></path><path d="M466.3296 391.8848c-23.8592-8.96-56.5248-6.1952-74.5472 7.9872-14.6432 11.52-32 25.856-49.92 43.264a391.97696 391.97696 0 0 0 124.4672-51.2512zM632.6784 174.336c-6.0416-0.1024-12.3904 0.512-19.0464 1.6384-21.3504 3.584-82.0224 19.712-108.3392 30.6176-26.3168 10.9056-30.464 25.856-36.7616 57.6512-2.9696 15.104-5.1712 29.7472-6.6048 40.96l-4.7616 1.3312c-19.9168 5.5296-31.5904 26.1632-26.0096 46.08a11.85792 11.85792 0 0 0 14.6432 8.2432l52.0192-14.4896c1.1264 6.7072 2.9696 13.1584 5.2736 19.3536 59.8528-47.9744 105.984-113.7152 129.5872-191.3856z" fill="#FF9A7B" p-id="6791"></path></svg>