<?xml version="1.0" encoding="utf-8"?>
<svg version="1.1" xmlns:xlink="http://www.w3.org/1999/xlink" width="240px" height="58px" xmlns="http://www.w3.org/2000/svg">
  <g transform="matrix(1 0 0 1 -437 -418 )">
    <path d="M 438 422  A 3 3 0 0 1 441 419 L 673 419  A 3 3 0 0 1 676 422 L 676 472  A 3 3 0 0 1 673 475 L 441 475  A 3 3 0 0 1 438 472 L 438 422  Z " fill-rule="nonzero" fill="#ff3399" stroke="none" fill-opacity="0.0980392156862745" />
    <path d="M 437.5 422  A 3.5 3.5 0 0 1 441 418.5 L 673 418.5  A 3.5 3.5 0 0 1 676.5 422 L 676.5 472  A 3.5 3.5 0 0 1 673 475.5 L 441 475.5  A 3.5 3.5 0 0 1 437.5 472 L 437.5 422  Z " stroke-width="1" stroke-dasharray="9,4" stroke="#ff3399" fill="none" stroke-dashoffset="0.5" />
  </g>
</svg>