<?xml version="1.0" encoding="utf-8"?>
<svg version="1.1" xmlns:xlink="http://www.w3.org/1999/xlink" width="31px" height="17px" xmlns="http://www.w3.org/2000/svg">
  <g transform="matrix(1 0 0 1 -40 -569 )">
    <path d="M 26.729052734375 11.951025390625  C 24.009033203125 14.671044921875  20.266015625 16.032080078125  15.5 16.03447265625  C 10.74287109375 16.04130859375  6.999853515625 14.679931640625  4.270947265625 11.951025390625  C 1.542041015625 9.2224609375  0.181005859375 5.4791015625  0.1875 0.721972656250001  C 4.953515625 0.724365234375  8.696533203125 2.085400390625  11.416552734375 4.805419921875  C 14.1314453125 7.519970703125  15.49248046875 11.253759765625  15.5 16.006787109375  C 15.4986328125 11.262646484375  16.85966796875 7.528857421875  19.583447265625 4.805419921875  C 22.312353515625 2.076513671875  26.05537109375 0.715478515625001  30.8125 0.721972656250001  C 30.81044921875 5.48798828125  29.4494140625 9.231005859375  26.729052734375 11.951025390625  Z " fill-rule="nonzero" fill="#42c76e" stroke="none" fill-opacity="0.509803921568627" transform="matrix(1 0 0 1 40 569 )" />
  </g>
</svg>