<svg t="1669252198968" class="icon" viewBox="0 0 1024 1024" version="1.1" xmlns="http://www.w3.org/2000/svg" p-id="1914" width="200" height="200"><path d="M512 512m-460.8 0a460.8 460.8 0 1 0 921.6 0 460.8 460.8 0 1 0-921.6 0Z" fill="#D0F7DB" p-id="1915"></path><path d="M691.2 793.6H332.8c-56.32 0-102.4-46.08-102.4-102.4V486.4c0-56.32 46.08-102.4 102.4-102.4h358.4c56.32 0 102.4 46.08 102.4 102.4v204.8c0 56.32-46.08 102.4-102.4 102.4z" fill="#39B26E" p-id="1916"></path><path d="M327.68 665.6c-16.896 0-30.72 13.824-30.72 30.72s13.824 30.72 30.72 30.72 30.72-13.824 30.72-30.72-13.824-30.72-30.72-30.72z" fill="#D0F7DB" p-id="1917"></path><path d="M614.4 230.4H409.6c-28.16 0-51.2 23.04-51.2 51.2s23.04 51.2 51.2 51.2v51.2h204.8V332.8c28.16 0 51.2-23.04 51.2-51.2s-23.04-51.2-51.2-51.2z" fill="#39B26E" p-id="1918"></path><path d="M599.04 619.52h-87.04l51.2-153.6h87.04z" fill="#FFFFFF" p-id="1919"></path><path d="M711.68 578.56l-117.76 133.12 5.12-92.16 25.6-76.8h87.04z" fill="#D0F7DB" p-id="1920"></path></svg>