<?xml version="1.0" encoding="utf-8"?>
<svg version="1.1" xmlns:xlink="http://www.w3.org/1999/xlink" width="516px" height="87px" xmlns="http://www.w3.org/2000/svg">
  <g transform="matrix(1 0 0 1 -437 -534 )">
    <path d="M 438 538  A 3 3 0 0 1 441 535 L 949 535  A 3 3 0 0 1 952 538 L 952 617  A 3 3 0 0 1 949 620 L 441 620  A 3 3 0 0 1 438 617 L 438 538  Z " fill-rule="nonzero" fill="#ff3399" stroke="none" fill-opacity="0.0980392156862745" />
    <path d="M 437.5 538  A 3.5 3.5 0 0 1 441 534.5 L 949 534.5  A 3.5 3.5 0 0 1 952.5 538 L 952.5 617  A 3.5 3.5 0 0 1 949 620.5 L 441 620.5  A 3.5 3.5 0 0 1 437.5 617 L 437.5 538  Z " stroke-width="1" stroke-dasharray="9,4" stroke="#ff3399" fill="none" stroke-dashoffset="0.5" />
  </g>
</svg>