<?xml version="1.0" encoding="utf-8"?>
<svg version="1.1" xmlns:xlink="http://www.w3.org/1999/xlink" width="12px" height="12px" viewBox="333 297  12 12" xmlns="http://www.w3.org/2000/svg">
  <path d="M 339 297  C 342.36 297  345 299.64  345 303  C 345 306.36  342.36 309  339 309  C 335.64 309  333 306.36  333 303  C 333 299.64  335.64 297  339 297  Z " fill-rule="nonzero" fill="#f0f0f0" stroke="none" />
  <path d="M 339 297.5  C 342.08 297.5  344.5 299.92  344.5 303  C 344.5 306.08  342.08 308.5  339 308.5  C 335.92 308.5  333.5 306.08  333.5 303  C 333.5 299.92  335.92 297.5  339 297.5  Z " stroke-width="1" stroke="#797979" fill="none" />
  <path d="M 339 306  C 337.32 306  336 304.68  336 303  C 336 301.32  337.32 300  339 300  C 340.68 300  342 301.32  342 303  C 342 304.68  340.68 306  339 306  " fill-rule="nonzero" fill="#797979" stroke="none" />
</svg>